<?xml version="1.0" encoding="utf-8"?>
<!-- Generator: Adobe Illustrator 28.0.0, SVG Export Plug-In . SVG Version: 6.00 Build 0)  -->
<svg version="1.1" id="Layer_1" xmlns="http://www.w3.org/2000/svg"
  xmlns:xlink="http://www.w3.org/1999/xlink" x="0px" y="0px"
  viewBox="0 0 556 498" style="enable-background:new 0 0 556 498;" xml:space="preserve">
<style type="text/css">
	.st0{fill:#131313;}
	.st1{fill:#151515;}
	.st2{fill:#161616;}
	.st3{fill:#111111;}
	.st4{fill:#121212;}
	.st5{fill:#101010;}
	.st6{fill:#1A1A1A;}
	.st7{fill:#141414;}
	.st8{fill:#1D1D1D;}
	.st9{fill:#191919;}
	.st10{fill:#1B1B1B;}
	.st11{fill:#171717;}
	.st12{fill:#1F1F1F;}
	.st13{fill:#989898;}
	.st14{fill:#A0A0A0;}
	.st15{fill:#969696;}
	.st16{fill:#181818;}
	.st17{fill:#232323;}
	.st18{fill:#9D9D9D;}
	.st19{fill:#A1A1A1;}
	.st20{fill:#A8A8A8;}
	.st21{fill:#9A9A9A;}
	.st22{fill:#909090;}
	.st23{fill:#939393;}
	.st24{fill:#AAAAAA;}
	.st25{fill:#A5A5A5;}
	.st26{fill:#B1B1B1;}
	.st27{fill:#202020;}
	.st28{fill:#8B8B8B;}
	.st29{fill:#ADADAD;}
	.st30{fill:#898989;}
	.st31{fill:#A3A3A3;}
	.st32{fill:#6F6F6F;}
	.st33{fill:#ACACAC;}
	.st34{fill:#A2A2A2;}
	.st35{fill:#7A7A7A;}
	.st36{fill:#9C9C9C;}
	.st37{fill:#494949;}
	.st38{fill:#A7A7A7;}
	.st39{fill:#828282;}
	.st40{fill:#B9B9B9;}
	.st41{fill:#959595;}
	.st42{fill:#9E9E9E;}
	.st43{fill:#787878;}
	.st44{fill:#D9D9D9;}
	.st45{fill:#808080;}
	.st46{fill:#B3B3B3;}
	.st47{fill:#BABABA;}
	.st48{fill:#E3E3E3;}
	.st49{fill:#6E6E6E;}
	.st50{fill:#A4A4A4;}
	.st51{fill:#7D7D7D;}
	.st52{fill:#F6F6F6;}
	.st53{fill:#F5F5F5;}
</style>
<g>
	<path class="st0" d="M280.1,49.5c-2.8-2.8-5.8-5.5-8.5-8.3c-3.7-3.8-7.2-7.8-10.9-11.8c3-4,7.3-1,11-2.6c0-5.2,0-10.6,0-16.2
		c5.3,0,10.2,0,15.4,0c0,5.5,0,10.8,0,16.7c2.3,0,4.3-0.1,6.4,0c1.4,0.1,2.8,0.7,4.1,1c-0.7,1.4-1.1,2.9-2,4.1
		c-1.8,2.5-3.9,4.9-5.8,7.4C286.5,42.9,283.3,46.2,280.1,49.5z"/>
	<path class="st1" d="M49.4,238.3c-5.6-2.2-9.7-5.8-10.9-12c-1.4-7,3.8-15.8,11.8-16.1c4.9-0.2,9.4,0.3,12.9,4.3
		c4.1,4.6,4.5,9.7,2.9,15.4C62.1,235.7,57,239.4,49.4,238.3z M59.2,223.9c0-3.9-2.5-6.5-6.2-6.6c-3.7,0-7.1,3-7.1,6.3
		c0,3.8,3.2,7.4,6.5,7.4C55.8,230.9,59.2,227.4,59.2,223.9z"/>
	<path class="st2" d="M517.2,224.8c0,7.1-6.8,13.3-15.2,13.3c-7.1,0-13.7-7.2-13.5-14.1c0.3-7.9,6.2-14.5,13.7-14.3
		C509.8,209.8,518,215.8,517.2,224.8z M496.2,224.5c0,3.7,3,6.8,6.5,6.8c3.6,0.1,7.5-3.7,7.3-7.1c-0.1-3.5-3.5-6.8-6.8-6.8
		C499.3,217.5,496.2,220.5,496.2,224.5z"/>
	<path class="st3" d="M376,34.9c-1.1,3.5-2.3,7.9-3.7,12.2c-1.5,4.8-3.2,9.6-4.7,14.5c-1.8,5.5-3.2,11.1-5.3,16.5
		c-1.4,3.7-6,6.3-8.5,2.1c-0.5-0.9-1-2.2-0.7-3.1c3.1-9.6,6.3-19.1,9.5-28.7c1.8-5.5,3.6-11,5.4-16.5c0.7-2.3,2.2-3.9,4.7-3.8
		C374.8,28.1,376,30.6,376,34.9z"/>
	<path class="st4" d="M497.8,344c4.3,0.7,9.3,1.6,14.4,2.4c8,1.3,16.1,2.5,24.1,3.9c1.7,0.3,4,0.7,4.9,1.9c1.2,1.5,2,4.2,1.4,5.8
		c-0.4,1.3-3.4,2.6-5,2.4c-11.4-1.8-22.7-4-34.1-6.1c-2.4-0.4-4.7-0.9-7.1-1.3c-3.1-0.5-5.4-2.8-5.1-5.3
		C491.6,345.1,493.5,343.9,497.8,344z"/>
	<path class="st0" d="M477.3,408c3.2,0.4,5.7,0.8,8.2,0.9c2.2,0.1,3.1,1.1,3.1,3.2c0,2.2-0.7,3.9-3.2,4c-2.4,0.1-4.9,0-8,0
		c0,2.9,0,5.6,0,8.4c0,3.3-1.4,4.7-4.4,4.8c-3.4,0.2-4.1-1.8-3.9-4.6c0.1-2.3,0-4.6,0-7.3c-2.4,0-4.6,0-6.8,0c-2.6,0-4.4-1.3-5-3.8
		c-0.5-1.9,2.3-4.9,4.6-5.2c1-0.1,2.1-0.1,3.1,0c2.3,0.1,3.7-0.5,3.5-3.3c-0.1-2,0.4-4.1,0.7-6.1c0.5-2.6,2.6-2.4,4.6-2.5
		c2.3-0.1,3.4,1.2,3.5,3.3C477.4,402.3,477.3,405.1,477.3,408z"/>
	<path class="st1" d="M82.9,417.3c0,2.9,0,5.3,0,7.7c0.1,3.1-2.3,4-4.5,4.1c-2.1,0.1-3.9-1.2-4-3.8c-0.1-2.4,0.6-5.5-0.7-7.1
		c-1-1.3-4.3-0.8-6.5-1.1c-0.8-0.1-1.8,0-2.3-0.5c-1.3-1-3.6-2.6-3.4-3.3c0.5-1.6,2-3.4,3.5-4.2c1.5-0.7,3.7-0.3,5.5-0.3
		c2.6,0,3.8-1.3,3.8-3.8c0-1.6,0.1-3.3,0.1-4.9c-0.1-3.1,2.2-4.1,4.4-4.2c2.3-0.1,3.2,1.9,3,4.1c-0.1,1,0,2.1,0,3.1
		c0.1,3.7,1.4,5,5,5.1c0.7,0,1.4-0.1,2.1,0c2.4,0.3,4.8,0.9,5.1,3.9c0.2,2.3-2.2,4.8-5,5.1C87.2,417.4,85.4,417.3,82.9,417.3z"/>
	<path class="st1" d="M474.4,158c6.2-0.2,7,0.5,7,6c0,1.7,0,3.5,0,5.9c2.5,0,4.9,0.1,7.3,0c2.1-0.1,3.6,0.8,4,2.9
		c0.4,2-0.2,3.7-2.5,4.2c-1.5,0.4-3.1,1.1-4.6,1.1c-2.9,0-4,1.4-4.1,4c-0.1,1.7,0.4,3.6-0.1,5.2c-0.4,1.4-2.3,3.5-2.9,3.3
		c-1.5-0.5-3.3-1.8-3.8-3.3c-0.7-1.7-0.3-3.9-0.1-5.9c0.2-2.5-1-3.4-3.3-3.2c-1.5,0.1-3,0-4.5,0c-2.5,0-4.9-0.2-5.3-3.3
		c-0.2-2,2.8-4.8,5.2-4.9c2.3-0.1,4.6,0,7.1,0c-0.1-2.3-0.4-4.3-0.2-6.2C473.5,161.8,474.1,159.9,474.4,158z"/>
	<path class="st5" d="M36.8,347.5c1.6-0.4,3.3-0.8,4.9-1.1c6.1-1.1,12.2-2.1,18.2-3.1c3.7-0.6,5.4,2.5,5.5,5
		c0.1,3.5-2.6,3.7-5.2,4.1c-6,0.9-11.9,2-17.9,3.1c-6,1.1-11.9,2.1-17.9,3.2c-1.8,0.3-3.5,1-5.2,1.3c-3.1,0.6-4.9-1.3-6-3.8
		c-0.7-1.6,3-6.3,5-6.6c4.1-0.5,8.2-0.9,12.3-1.4c1.3,0.4,2.6,0.7,4.2,1.2c-5.9,3.1-13,1.1-17.8,5.9c9.1-1.9,18.1-3.8,27.2-5.6
		c-1.5-0.8-3.1-0.7-4.6-0.9C38.6,348.7,37.7,348,36.8,347.5z"/>
	<path class="st0" d="M73.1,169.8c0-3.2,0.1-5.8,0-8.3c-0.1-2.2,0.6-4,3-3.5c1.5,0.4,3.5,2,3.8,3.4c0.6,2.6,0.2,5.5,0.2,8.1
		c3.1,0.6,5.8,0.7,8.2,1.6c1.3,0.5,3,2.4,2.9,3.3c-0.3,1.4-1.9,3.1-3.3,3.5c-2.3,0.6-4.8,0.2-7.7,0.2c0.2,2.4,0.1,4.5,0.5,6.5
		c0.5,2.5-0.3,3.9-2.8,4.1c-2.3,0.1-4.9,0.5-4.8-3.2c0.1-2.3,0-4.6,0-7.4c-2.6,0-4.9,0.1-7.2,0c-2.6-0.1-4.6-1.3-4.6-4
		c0-2.6,1.8-4.1,4.5-4.1C68.1,169.8,70.4,169.8,73.1,169.8z"/>
	<path class="st0" d="M309.9,98.4c1.2-5.2,2.5-10.5,3.6-15.7c1.5-6.6,2.9-13.2,4.3-19.8c0.5-2.2,0.9-4.6,4.1-4.3
		c3,0.4,4.9,2.6,4.4,5.8c-1,5.8-2.6,11.6-3.8,17.3c-1.1,5-2.1,10.1-3.1,15.1c-0.3,1.3-0.3,2.8-0.9,4c-1,2-2.4,3.7-5,3.1
		C311.4,103.5,310.2,101.5,309.9,98.4z"/>
	<path class="st6" d="M232.3,62.6c1-1.1,2.2-3.3,3.8-3.7c1.9-0.5,4.2,0.5,4.9,3.2c0.9,3.5,1.8,7.1,2.7,10.6
		c1.8,7.3,3.7,14.6,5.2,21.9c0.4,2.1,0.1,4.6-0.6,6.7c-0.3,1-2.4,2.1-3.5,2c-1.3-0.2-3.2-1.5-3.5-2.7c-2.1-8.1-3.9-16.4-5.9-24.5
		c-0.8-3.2-1.6-6.4-2.4-9.6C232.8,65.4,232.7,64.5,232.3,62.6z"/>
	<path class="st7" d="M76,295.7c-5.6,0-11.2-0.1-16.7,0c-2.9,0-4.6-1.4-4.9-4.1c-0.3-2.6,1.7-4.4,4.9-4.4c9.2,0,18.4,0,27.5,0.1
		c2.5,0,4.9-0.1,7.4,0c2.7,0.1,4.1,2.2,3.9,4.3c-0.3,2.4-2.1,4.1-5,4.1C87.4,295.7,81.7,295.7,76,295.7C76,295.7,76,295.7,76,295.7z
		"/>
	<path class="st7" d="M56.4,319.4c-5,0-10,0-15,0c-0.9,0-2.1,0.2-2.7-0.3c-2-1.3-5.1-2.3-3.8-5.6c1-2.5,3.3-2.9,6.1-2.9
		c10.2,0.1,20.4-0.3,30.5-0.6c2.9-0.1,6.4,2.6,6.5,5.3c0.1,2-2.7,4-5.9,4C66.8,319.4,61.6,319.3,56.4,319.4
		C56.4,319.3,56.4,319.4,56.4,319.4z"/>
	<path class="st1" d="M478.7,287.1c5,0,10,0,15,0c1.5,0,3.3-0.1,4.3,0.7c1.2,0.9,2.5,3.7,2.2,3.9c-1.7,1.6-3.8,3.6-5.9,3.7
		c-8.8,0.4-17.7,0.2-26.5,0.2c-2.2,0-4.4,0-6.6,0c-2.6-0.1-4-1.9-4-4.2c0-2.3,1.4-4.2,4-4.2c5.8-0.1,11.6,0,17.4,0
		C478.7,287.2,478.7,287.1,478.7,287.1z"/>
	<path class="st2" d="M409.6,65.9c-1.5,3.3-2.5,5.7-3.7,8.1c-3.2,6.5-6.3,13.1-9.7,19.5c-0.9,1.7-2.8,3.3-4.6,4c-1,0.4-3-1-4.1-2.1
		c-0.7-0.7-1-2.5-0.5-3.4c4.4-9.1,8.9-18.2,13.7-27.2c0.7-1.4,3.2-2.7,4.6-2.5C406.8,62.6,408.1,64.6,409.6,65.9z"/>
	<path class="st0" d="M39.2,255.8c5.7,0.8,11.3,1.6,17,2.4c3.4,0.5,6.8,0.8,10.3,1.2c2.6,0.3,3.9,2.8,3.2,6.1
		c-0.5,2.3-1.9,3.4-4.7,3c-5.8-1-11.7-1.4-17.5-2.1c-3.2-0.4-6.6-0.5-9.5-1.6c-1.6-0.7-3.5-3.2-3.5-5
		C34.4,257.5,36.2,255.4,39.2,255.8z"/>
	<path class="st8" d="M284.3,77.2c0,3.6,0,7.2,0,10.8c0,2.9-0.9,4.9-4.2,5c-3.3,0.1-5.2-1.2-5.3-4.5c-0.2-7.8-0.2-15.6,0-23.4
		c0.1-2.6,1.7-4.7,4.7-5c2.3-0.2,4.7,2.4,4.9,5.2C284.4,69.2,284.3,73.2,284.3,77.2C284.3,77.2,284.3,77.2,284.3,77.2z"/>
	<path class="st2" d="M497.3,310.9c4.5,0,9.1,0,13.6,0c2.3,0,4.4,1.2,4.6,3.2c0.1,1.3-1.8,3.1-3.2,4c-1.3,0.9-3.3,1.2-4.9,1.2
		c-8.4-0.1-16.7-0.4-25.1-0.5c-2.8-0.1-3.5-1.8-3.5-4.1c-0.1-2.6,1.4-3.8,3.9-3.8C487.5,310.8,492.4,310.9,497.3,310.9
		C497.3,310.9,497.3,310.9,497.3,310.9z"/>
	<path class="st9" d="M141.6,108.4c-1.3,1.3-2.6,2.8-4.2,4.1c-2.1,1.7-3-0.3-4-1.6c-5-6.6-10-13.2-14.9-19.9c-1.9-2.6-1.5-6.2,1-7.6
		c2.6-1.6,4.5-0.6,6.3,1.9c4.5,6.4,9.4,12.6,14,19C140.4,105.3,140.7,106.5,141.6,108.4z"/>
	<path class="st10" d="M153.2,71.8c0.7-0.8,1.4-2.3,2.4-2.5c1.8-0.4,3.8-0.3,5.5,0.3c1.2,0.4,2.2,2,2.8,3.2
		c2.8,5.3,5.3,10.7,8.1,15.9c2.1,4,1.4,8.2-2,8.8c-1.3,0.2-3.7-0.5-4.3-1.5c-4-6.8-7.7-13.8-11.4-20.7
		C153.8,74.4,153.7,73.3,153.2,71.8z"/>
	<path class="st11" d="M415.3,109c1.1-1.6,2.1-3.4,3.3-4.9c4.1-5.3,8.1-10.7,12.4-15.7c2.7-3.1,7-2.3,7.6,1.3
		c0.2,1.4-0.4,3.2-1.2,4.4c-4,5.7-8.2,11.2-12.3,16.7c-3,4.1-5.9,4.6-8.4,1.6C416.1,111.6,415.9,110.4,415.3,109z"/>
	<path class="st4" d="M511,256.6c1.9-0.1,3.9-0.6,5.6,0c1.4,0.5,3.2,2.3,3.3,3.5c0.1,2.2-1,4.4-3.8,4.8c-5.6,0.7-11.2,1.3-16.8,2.1
		c-2.5,0.3-4.9,1.2-7.4,1.3c-3.8,0.2-6.7-2-6.7-4.8c0-2.8,2.2-4.5,6.3-4.8c0.6,2.4,2.4,2,4.1,1.6c2.2-0.4,4.5-0.8,6.7-1
		c2.3-0.2,4.6,0,6.9-0.1C510.9,259.2,511.7,258.5,511,256.6z"/>
	<path class="st11" d="M446.6,121.8c1.4-1.9,2.5-3.5,3.7-5c3.6-4,7.3-7.9,10.9-11.8c2-2.2,4.2-2,6.3-0.2c2.2,1.9,2.6,4.3,0.6,6.5
		c-4.8,4.9-9.7,9.7-14.7,14.4c-0.7,0.7-2.8,0.7-3.7,0.1C448.5,125,447.8,123.3,446.6,121.8z"/>
	<path class="st12" d="M197.7,52.3c1,2.6,2.2,5.1,3.1,7.7c1.3,3.9,2.5,7.9,3.7,11.9c-0.4,1.3-0.8,2.6-1.3,3.7c-0.5,1.1-1.3,2-2,3.1
		c-0.7-0.9-1.8-1.6-2.1-2.7c-3.1-9.8-6.2-19.6-9.2-29.5c-1.7-5.6-3.3-11.3-5-16.9c0,0-0.1,0.1-0.1,0.1c1.6,1.2,3.8,2,4.5,3.6
		c1.7,3.6,2.8,7.5,4.1,11.3c1,3.2,2,6.4,2.9,9.6c0.3-0.1,0.6-0.1,0.9-0.2C197.4,53.5,197.5,52.9,197.7,52.3z"/>
	<path class="st1" d="M101.4,125.3c-1.4-0.3-2.4-0.2-2.7-0.6c-4.4-4.7-8.7-9.5-13.1-14.2c-2.2-2.3-1.3-4.6,0.6-6.2
		c2.1-1.8,4.7-1.3,6.4,0.6c4,4.5,7.9,9.1,11.6,13.8c0.7,0.8,0.9,2.7,0.4,3.6C104,123.7,102.4,124.5,101.4,125.3z"/>
	<path class="st5" d="M505.4,389.4c-5.3-1.8-12.5-0.3-17.6-5.6c-0.6-0.6-1.1-2.3-0.7-2.8c1.5-2.4,3.4-4,6.7-3
		c4.6,1.3,9.4,2.1,14.1,2.9c2.4,0.5,4.7,1,4.4,4.2C512,387.7,509.5,389.4,505.4,389.4z"/>
	<path class="st3" d="M54.5,378.2c2.7-0.3,4.6,0.7,4.9,3.5c0.3,2.5-0.7,4.3-3.3,5c-4.3,1.1-8.5,2.7-12.8,3.2
		c-1.8,0.2-4.9-1.5-5.6-3.1c-1.5-3.2,0.6-6.2,4.5-6.9C46.3,379,50.4,378.7,54.5,378.2z"/>
	<path class="st2" d="M216.6,115.4c-0.8,3.2-2.4,5.7-4.9,5.8c-1.6,0.1-4.1-2.2-4.8-3.9c-1.6-4.5-2.5-9.3-3.3-14
		c-0.2-1.1,1.3-3.4,2.3-3.6c1.4-0.3,3.9,0.5,4.5,1.6C212.8,105.9,214.6,110.7,216.6,115.4z"/>
	<path class="st1" d="M184.9,29.7c1.7,5.6,3.3,11.3,5,16.9c3,9.8,6,19.7,9.2,29.5c0.3,1,1.4,1.8,2.1,2.7c0.7-1,1.5-2,2-3.1
		c0.6-1.2,0.9-2.5,1.3-3.7c0.4,0.9,0.8,1.9,1.2,2.8c1.1,2.8-0.2,6.3-2.6,6.9c-3,0.7-6-1.2-6.8-4.1c-2.7-9.2-5.4-18.3-8.2-27.5
		c-1.5-4.9-3.4-9.8-4.8-14.8C182.7,33.3,182.2,30.9,184.9,29.7z"/>
	<path class="st13" d="M282.9,115.9c0,1.5,0.3,3.1-0.1,4.5c-0.4,1.2-1.5,2.6-2.5,2.9c-1,0.3-2.8-0.4-3.6-1.3
		c-2.2-2.3-2.3-10.6-0.1-12.8c0.7-0.7,2.5-1.1,3.4-0.8c1.1,0.4,2.3,1.6,2.7,2.7c0.5,1.5,0.3,3.2,0.4,4.8
		C283,115.9,282.9,115.9,282.9,115.9z"/>
	<path class="st9" d="M97,267.2c0,3-1.8,4.7-5.1,4.7c-3.2,0-5.4-1.9-5.5-4.8c0-3,2.7-5.7,5.7-5.7C94.5,261.5,97,264.4,97,267.2z"/>
	<path class="st14" d="M210.8,481.5c0.1,3.6-1.4,4.6-4.3,4.3c-2-0.2-4.1,0.2-6-0.2c-1.5-0.3-2.8-1.5-4.2-2.3
		c0.8-1.2,1.5-3.2,2.5-3.4c3.2-0.6,6.6-0.8,9.9-0.7C209.6,479.2,210.4,481,210.8,481.5z"/>
	<path class="st15" d="M460.6,342.3c-0.2-3,1.2-4.6,4.2-4.7c3-0.1,4.8,2,4.9,5.5c0,3.1-1.6,5-4.4,5
		C462.5,348.1,460.7,345.8,460.6,342.3z"/>
	<path class="st16" d="M463.9,262.1c2.8,0,5,1.9,5.1,4.5c0.1,2.5-2.6,5.3-5.2,5.3c-2.5,0-5.2-2.1-5.2-4.1
		C458.4,264.9,461.1,262.1,463.9,262.1z"/>
	<path class="st2" d="M459.2,39.7c3.1,0,4.8,1.8,4.9,5.2c0,2.7-1.9,4.6-4.7,4.6c-3,0-5.1-2.1-5.1-5.1
		C454.4,41.5,456.2,39.7,459.2,39.7z"/>
	<path class="st17" d="M92.7,44.9c0-2.7,2.3-5.2,4.7-5.2c2.7,0,4.4,2,4.4,5.3c0,2.7-2.1,4.6-4.9,4.5C94.1,49.4,92.7,47.9,92.7,44.9z
		"/>
	<path class="st18" d="M94.8,233.8c-0.1,2.6-2.2,4.7-4.9,4.2c-2.4-0.4-4.4-1.5-4.2-4.6c0.2-3,2.1-5.1,4.7-5
		C93,228.7,94.9,231,94.8,233.8z"/>
	<path class="st11" d="M197.7,52.3c-0.1,0.6-0.3,1.3-0.4,1.9c-0.3,0.1-0.6,0.1-0.9,0.2c-1-3.2-1.9-6.4-2.9-9.6
		c-1.3-3.8-2.3-7.7-4.1-11.3c-0.8-1.6-3-2.4-4.5-3.6c2-2,4.7-1.9,5.7,0.6c2.1,5.3,3.9,10.7,5.8,16.1
		C196.9,48.3,197.2,50.3,197.7,52.3z"/>
	<path class="st12" d="M36.8,347.5c0.9,0.4,1.8,1.1,2.7,1.3c1.5,0.2,3,0.1,4.6,0.9c-9.1,1.9-18.1,3.8-27.2,5.6
		c4.8-4.9,11.9-2.9,17.8-5.9c-1.6-0.4-2.9-0.8-4.2-1.2C32.6,348,34.7,347.7,36.8,347.5z"/>
	<path class="st19" d="M370,123.6c-0.2,0-0.5,0.1-0.7,0c-1.6-1-4.2-1.7-4.7-3.1c-0.8-2.4,2-2.7,3.7-3c1.7-0.4,3.6-0.3,5.3,0.1
		c2.1,0.5,2.5,3.7,0.6,5c-1.1,0.8-2.7,1-4.1,1.5C370,123.8,370,123.7,370,123.6z"/>
	<path class="st20" d="M343.8,485.9c-2.8,0-4.9-0.9-4.8-3.9c0.1-3,2.5-3.2,4.9-3.2c2.5,0,4.6,0.6,4.7,3.5
		C348.6,485.3,346.2,485.9,343.8,485.9z"/>
	<path class="st21" d="M373.8,486c-1.8-0.1-3.9,0.2-4.1-2.8c-0.1-2.4,0.5-3.9,3.2-3.6c1,0.1,2.1,0.2,3.1,0.3
		c1.9,0.2,4.2,0.9,3.7,3.1c-0.3,1.3-2.8,2.1-4.4,3C375,486.1,374.4,486,373.8,486z"/>
	<path class="st22" d="M92.7,347.4c-2.3,2.4-4.5,1.3-6.2-0.5c-1.9-2-0.7-6,2-7.9C91.8,339.8,92.8,341.8,92.7,347.4z"/>
	<path class="st23" d="M468.7,372.4c-1.8,1.2-3.5,3.1-5.3,3.3c-1.3,0.1-3.3-2-4-3.6c-0.8-1.8,2.2-4.7,4.3-4.2c1.8,0.4,3.2,2,4.8,3
		C468.6,371.4,468.7,371.9,468.7,372.4z"/>
	<path class="st24" d="M97.5,312.9c0.2,3.6-1.5,4.8-3.7,5c-2.9,0.2-3.4-2.5-3.6-4.5c-0.2-2.3,1.2-3.6,3.6-3.7
		C96.8,309.5,97.4,311.4,97.5,312.9z"/>
	<path class="st25" d="M462.6,309.1c0.9,1.3,2.4,2.6,2.6,4c0.3,2.5-1.3,4.1-3.9,4.2c-2.6,0-3.5-2.1-3.2-4c0.2-1.5,1.9-2.8,2.9-4.2
		C461.5,309.1,462.1,309.1,462.6,309.1z"/>
	<path class="st21" d="M463.3,229.7c1.4-0.3,3-1.1,4.2-0.8c0.8,0.2,1.6,2.3,1.4,3.4c-0.3,1.6-1.2,3.4-2.5,4.4
		c-1,0.8-2.9,2.6-4.4,0.2C462.5,234.5,462.9,232.1,463.3,229.7z"/>
	<path class="st26" d="M317.8,116.7c3.8-0.2,4.8,1.4,4.9,3.6c0.1,2.3-1.2,3.4-3.5,3.3c-2.2,0-4.1-1.1-3.8-3.4
		C315.6,118.7,317.3,117.4,317.8,116.7z"/>
	<path class="st27" d="M511,256.6c0.8,1.9-0.1,2.6-1.8,2.6c-2.3,0-4.6-0.1-6.9,0.1c-2.3,0.2-4.5,0.6-6.7,1c-1.8,0.3-3.5,0.8-4.1-1.6
		c3.9-0.5,7.9-1.1,11.8-1.5C505.7,256.9,508.4,256.8,511,256.6z"/>
	<path class="st17" d="M245.3,481.9c-0.1,2.9-1.4,4.5-3.7,3.9c-1.5-0.4-3.5-2.1-3.8-3.5c-0.3-1.9,1.1-3.6,3.7-3.5
		C243.9,478.9,245,480,245.3,481.9z"/>
	<path class="st28" d="M125.6,483.6c-1.3,1-2.5,2.6-3.8,2.7c-2.3,0.2-4.2-1.5-3.7-3.9c0.3-1.4,2.2-3.2,3.4-3.3
		c1.3,0,2.7,1.8,4.1,2.8C125.6,482.5,125.6,483,125.6,483.6z"/>
	<path class="st29" d="M104.9,58.7c1.7-2.1,2.6-4.3,4-4.7c2.3-0.6,3.4,1.5,3.5,3.7c0.1,2.1-0.7,4-2.9,3.9
		C108.1,61.6,106.9,60.1,104.9,58.7z"/>
	<path class="st30" d="M171.6,479c2.9,0.5,4.3,1.4,4.4,3.7c0.1,2.6-1.9,3.9-3.7,3.5c-1.5-0.3-3.2-2.1-3.7-3.6
		C168.3,481.8,170.5,480.2,171.6,479z"/>
	<path class="st31" d="M310.9,482.9c2.2-1.7,3.6-3.3,5.2-3.8c0.6-0.2,2.9,2.6,2.7,3.4c-0.5,1.5-2.2,3-3.8,3.7
		C314.5,486.6,312.9,484.6,310.9,482.9z"/>
	<path class="st32" d="M434.8,486.5c-0.9-1.3-2.4-2.5-2.7-3.9c-0.6-2.5,1.6-3.7,3.5-3.5c1.2,0.1,2.9,1.9,3.1,3.2
		C439.1,484.2,438.1,486,434.8,486.5z"/>
	<path class="st33" d="M304.2,116.2c0.8,1.4,2.4,2.8,2.3,4.1c-0.1,1.2-2.1,3.2-3,3.1c-1.3-0.2-3.2-1.9-3.4-3.2
		c-0.2-1.2,1.6-2.7,2.5-4C303.1,116.2,303.7,116.2,304.2,116.2z"/>
	<path class="st34" d="M390.9,116.2c0.8,1.4,2.4,2.8,2.3,4.1c-0.1,1.2-2.2,3.2-3.2,3c-1.3-0.2-3.1-2-3.3-3.3
		c-0.1-1.2,1.6-2.6,2.6-3.9C389.8,116.1,390.3,116.1,390.9,116.2z"/>
	<path class="st35" d="M96.3,371.2c-2.1,1.9-3.3,3-4.5,4.1c-1.1-1.3-2.7-2.4-3.1-3.9c-0.6-2.2,1.2-3.6,3.2-3.5
		C93.1,368,94.3,369.6,96.3,371.2z"/>
	<path class="st36" d="M232.2,125.5c-1.5-2.1-3.2-3.5-3.2-4.8c0-1.1,2-2.8,3.3-3c2.2-0.3,4,1.3,3.6,3.5
		C235.6,122.4,233.9,123.5,232.2,125.5z"/>
	<path class="st37" d="M229.7,481.7c-0.2,3.3-1.5,4.1-3.7,4c-1.9,0-3.2-0.5-3.1-2.7c0.1-2.8,2.3-3.4,4.3-3.3
		C228.2,479.8,229.1,481.3,229.7,481.7z"/>
	<path class="st38" d="M176.7,119.4c-1.7-1.8,0.2-2.4,1.2-2.4c4.1,0.2,8.2,0.8,12.3,1.2c0.2,0,0.3,0.3,1.2,1.3
		c-1.8,1-3.3,1.9-4.9,2.8c0-2-1-2.9-3-2.9C181.2,119.5,179,119.4,176.7,119.4z"/>
	<path class="st39" d="M261.5,482.6c-1.9,1.4-3.3,3.2-4.2,2.9c-1.4-0.3-3.1-1.9-3.4-3.2c-0.2-0.9,2-3.3,2.9-3.2
		C258.2,479.3,259.4,481,261.5,482.6z"/>
	<path class="st21" d="M248,123.7c-2.3-0.1-3.5-1.1-3.5-3.5c0-2.4,1.7-3.1,3.5-2.7c1.3,0.3,3,1.6,3.2,2.7
		C251.6,122.2,250.3,123.7,248,123.7z"/>
	<path class="st40" d="M176.7,119.4c2.3,0,4.6,0,6.8,0c2,0,3,0.9,3,2.9C182.3,125.2,177.3,123.7,176.7,119.4z"/>
	<path class="st21" d="M301.2,485.8c-3.6,0.2-4.8-1.2-4.3-3.3c0.3-1.3,1.7-2.3,2.6-3.4c1.4,1.5,2.8,2.9,4.2,4.4
		C302.7,484.4,301.7,485.4,301.2,485.8z"/>
	<path class="st41" d="M278.1,482.8c-2.1,1.5-3.2,2.8-4.4,2.9c-2.1,0.2-3.7-1.4-3.2-3.4c0.3-1.3,2.1-3.2,3.1-3.1
		C274.9,479.2,276,481,278.1,482.8z"/>
	<path class="st42" d="M448.9,57.4c-2,2-3.2,3.3-4.4,4.6c-1.1-1.3-2.6-2.5-3-3.9c-0.2-0.6,1.8-2.4,3-2.7
		C445.4,55.1,446.8,56.3,448.9,57.4z"/>
	<path class="st43" d="M403.3,487.6c-1.7-2.2-3.5-3.6-3.3-4.5c0.3-1.3,2-2.8,3.3-3.1c1.5-0.3,3.9,0.4,3.3,2.9
		C406.3,484.2,404.9,485.3,403.3,487.6z"/>
	<path class="st44" d="M49.4,238.3c7.6,1.1,12.7-2.7,16.7-8.5c0.6,4.5-2.4,6.8-5.7,8.5C56.9,240.2,53.1,240.9,49.4,238.3z"/>
	<path class="st45" d="M90.2,210c-0.6-1.1-1.8-2.5-1.5-3.1c0.8-1.4,2.3-2.4,3.5-3.5c0.9,1,2.6,2.2,2.4,3c-0.3,1.4-1.8,2.6-2.7,3.8
		C91.3,210.2,90.8,210.1,90.2,210z"/>
	<path class="st24" d="M92.7,347.4c0-5.6-0.9-7.5-4.3-8.4c2.1-2.2,4.3-2,6.2,0.2C96.7,341.6,95.6,345.6,92.7,347.4z"/>
	<path class="st46" d="M161.1,120.7c-1.7,1.4-3,2.9-3.4,2.7c-1.3-0.7-2.9-1.9-3.1-3.2c-0.2-0.9,1.7-2.2,2.6-3.3
		C158.3,118,159.4,119,161.1,120.7z"/>
	<path class="st31" d="M143.6,483.6c-1.2,0.7-2.2,1.9-3.5,2.1c-2.1,0.4-3.1-1.2-2.6-3c0.3-1.1,1.7-2.7,2.7-2.8
		c1.1-0.1,2.3,1.4,3.4,2.1C143.6,482.7,143.6,483.2,143.6,483.6z"/>
	<path class="st47" d="M150.9,482.5c2-1.3,3.2-2.7,4.1-2.5c1,0.2,2.5,1.8,2.5,2.8c0,1-1.6,2.9-2.5,2.8
		C153.9,485.6,152.8,484,150.9,482.5z"/>
	<path class="st25" d="M415.2,482.5c1.8-1.3,3.2-2.7,3.7-2.5c1.2,0.7,2.4,2,2.7,3.2c0.2,0.6-1.7,2.5-2.4,2.4
		C418,485.4,417.1,484.1,415.2,482.5z"/>
	<path class="st48" d="M280.1,49.5c3.2-3.3,6.4-6.6,9.6-9.8c0.3,0.3,0.9,0.7,0.8,1C290.1,42.8,282.6,49.1,280.1,49.5z"/>
	<path class="st45" d="M467.3,207.6c-1.1,0.7-2.2,1.9-3.3,1.8c-0.9,0-2.6-1.7-2.4-2.3c0.2-1.1,1.5-2.7,2.4-2.8
		c1-0.1,2.2,1.2,3.3,1.9C467.2,206.7,467.3,207.1,467.3,207.6z"/>
	<path class="st49" d="M79.9,374.5c-1.1,1.1-2,2-2.9,2.9c-0.8-1.1-2.2-2.3-2.1-3.4c0.1-1.1,1.6-2.2,2.4-3.3
		C78.1,371.8,78.8,373,79.9,374.5z"/>
	<path class="st50" d="M262.6,116.7c0.5,1.2,1.4,2.3,1.3,3.4c-0.1,0.9-1.3,1.7-2,2.6c-0.6-0.9-1.8-1.8-1.8-2.7
		c0-1.1,0.8-2.2,1.3-3.4C261.8,116.7,262.2,116.7,262.6,116.7z"/>
	<path class="st51" d="M463.3,229.7c-0.4,2.4-0.9,4.8-1.3,7.2C459.8,233.4,460,232.2,463.3,229.7z"/>
	<path class="st52" d="M59.2,223.9c0,3.5-3.4,7-6.8,7.1c-3.3,0.1-6.5-3.5-6.5-7.4c0-3.3,3.4-6.4,7.1-6.3
		C56.8,217.4,59.2,220,59.2,223.9z"/>
	<path class="st53" d="M496.2,224.5c0-4,3-7,7.1-7c3.3,0,6.7,3.3,6.8,6.8c0.1,3.4-3.7,7.2-7.3,7.1
		C499.2,231.3,496.3,228.2,496.2,224.5z"/>
	<g>
		<path class="st1" d="M352.1,99.8c-1.4-0.4-4.2,1-4.8,2.3c-1.8,3.9-3.2,8.1-4.2,12.3c-0.8,3.3,3,2.7,4.6,4.1
			c0.4,0.4,3.2-0.8,3.6-1.8c1.6-3.8,2.7-7.9,4.3-12.7C354.6,102.5,353.6,100.1,352.1,99.8z M348.4,114.3c-0.5-0.1-1-0.3-1.5-0.4
			c1-3.5,2.1-6.9,3.1-10.4c0.4,0.1,0.8,0.2,1.2,0.3C351.9,107.7,349.8,110.9,348.4,114.3z"/>
		<path class="st0" d="M350,103.5c-1,3.5-2.1,6.9-3.1,10.4c0.5,0.1,1,0.3,1.5,0.4c1.4-3.4,3.5-6.6,2.8-10.5
			C350.8,103.7,350.4,103.6,350,103.5z"/>
	</g>
</g>
</svg>

